<svg width="18" height="21" viewBox="0 0 18 21" fill="none" xmlns="http://www.w3.org/2000/svg">
<path d="M14.632 7.47603H12.7212V1.46746C12.7212 0.806518 12.1805 0.265747 11.5195 0.265747H6.71267C6.05173 0.265747 5.51096 0.806518 5.51096 1.46746V7.47603H3.60023C2.53071 7.47603 1.98994 8.77388 2.74701 9.53096L8.26288 15.0468C8.73155 15.5155 9.48863 15.5155 9.9573 15.0468L15.4732 9.53096C16.2302 8.77388 15.7015 7.47603 14.632 7.47603ZM0.704102 19.4932C0.704102 20.1541 1.24487 20.6949 1.90582 20.6949H16.3264C16.9873 20.6949 17.5281 20.1541 17.5281 19.4932C17.5281 18.8322 16.9873 18.2915 16.3264 18.2915H1.90582C1.24487 18.2915 0.704102 18.8322 0.704102 19.4932Z" fill="white" style="fill:white;fill-opacity:1;"/>
</svg>
