<svg width="1728" height="144" viewBox="0 0 1728 144" fill="none" xmlns="http://www.w3.org/2000/svg">
<g opacity="0.1">
<path d="M-86.6345 19.8712V39.9975H-113.959V123H-139.08V39.9975H-166.405V19.8712H-86.6345ZM9.41634 19.8712V123H-15.7048V80.5438H-54.7821V123H-79.9032V19.8712H-54.7821V60.2706H-15.7048V19.8712H9.41634ZM46.7962 39.9975V60.8583H80.4379V80.25H46.7962V102.874H84.8451V123H21.6751V19.8712H84.8451V39.9975H46.7962ZM116.273 71.2887C116.273 61.1031 118.477 52.0438 122.884 44.1109C127.291 36.0799 133.412 29.8609 141.247 25.4536C149.18 20.9485 158.141 18.6959 168.131 18.6959C180.373 18.6959 190.853 21.9279 199.569 28.3918C208.286 34.8557 214.113 43.6701 217.051 54.8351H189.433C187.376 50.5258 184.438 47.2449 180.618 44.9923C176.897 42.7397 172.636 41.6134 167.837 41.6134C160.1 41.6134 153.832 44.3067 149.033 49.6933C144.234 55.0799 141.835 62.2784 141.835 71.2887C141.835 80.299 144.234 87.4974 149.033 92.884C153.832 98.2706 160.1 100.964 167.837 100.964C172.636 100.964 176.897 99.8376 180.618 97.5851C184.438 95.3325 187.376 92.0516 189.433 87.7423H217.051C214.113 98.9072 208.286 107.722 199.569 114.186C190.853 120.552 180.373 123.735 168.131 123.735C158.141 123.735 149.18 121.531 141.247 117.124C133.412 112.619 127.291 106.399 122.884 98.4665C118.477 90.5335 116.273 81.4742 116.273 71.2887ZM315.878 19.8712V123H290.757V80.5438H251.68V123H226.559V19.8712H251.68V60.2706H290.757V19.8712H315.878ZM392.336 104.784H353.846L347.676 123H321.379L358.694 19.8712H387.781L425.096 123H398.506L392.336 104.784ZM385.872 85.3918L373.091 47.6366L360.457 85.3918H385.872ZM547.367 19.8712V123H522.246V61.1521L499.182 123H478.909L455.697 61.0052V123H430.576V19.8712H460.252L489.192 91.2681L517.839 19.8712H547.367ZM623.755 104.784H585.265L579.095 123H552.798L590.113 19.8712H619.2L656.515 123H629.925L623.755 104.784ZM617.291 85.3918L604.51 47.6366L591.876 85.3918H617.291ZM725.887 19.8712C736.758 19.8712 746.258 22.0258 754.387 26.3351C762.516 30.6444 768.784 36.7165 773.191 44.5516C777.696 52.2887 779.949 61.25 779.949 71.4356C779.949 81.5232 777.696 90.4845 773.191 98.3196C768.784 106.155 762.467 112.227 754.24 116.536C746.111 120.845 736.66 123 725.887 123H687.251V19.8712H725.887ZM724.271 101.258C733.771 101.258 741.166 98.6624 746.454 93.4717C751.743 88.2809 754.387 80.9356 754.387 71.4356C754.387 61.9356 751.743 54.5413 746.454 49.2526C741.166 43.9639 733.771 41.3196 724.271 41.3196H712.372V101.258H724.271ZM852.31 104.784H813.82L807.65 123H781.354L818.668 19.8712H847.756L885.07 123H858.48L852.31 104.784ZM845.846 85.3918L833.065 47.6366L820.431 85.3918H845.846ZM939.324 124.028C929.628 124.028 920.716 121.776 912.587 117.271C904.556 112.765 898.141 106.497 893.342 98.4665C888.641 90.3376 886.29 81.2294 886.29 71.1418C886.29 61.0541 888.641 51.9949 893.342 43.9639C898.141 35.933 904.556 29.665 912.587 25.1598C920.716 20.6547 929.628 18.4021 939.324 18.4021C949.02 18.4021 957.883 20.6547 965.914 25.1598C974.043 29.665 980.409 35.933 985.012 43.9639C989.713 51.9949 992.063 61.0541 992.063 71.1418C992.063 81.2294 989.713 90.3376 985.012 98.4665C980.311 106.497 973.945 112.765 965.914 117.271C957.883 121.776 949.02 124.028 939.324 124.028ZM939.324 101.111C947.551 101.111 954.112 98.3686 959.009 92.884C964.004 87.3995 966.502 80.1521 966.502 71.1418C966.502 62.0335 964.004 54.7861 959.009 49.3995C954.112 43.915 947.551 41.1727 939.324 41.1727C930.999 41.1727 924.339 43.866 919.344 49.2526C914.448 54.6392 911.999 61.9356 911.999 71.1418C911.999 80.25 914.448 87.5464 919.344 93.0309C924.339 98.4175 930.999 101.111 939.324 101.111Z" fill="#0E0E0E" style="fill:#0E0E0E;fill:color(display-p3 0.0560 0.0560 0.0560);fill-opacity:1;"/>
<path d="M1120.37 19.8712V39.9975H1093.04V123H1067.92V39.9975H1040.59V19.8712H1120.37ZM1216.42 19.8712V123H1191.3V80.5438H1152.22V123H1127.1V19.8712H1152.22V60.2706H1191.3V19.8712H1216.42ZM1253.8 39.9975V60.8583H1287.44V80.25H1253.8V102.874H1291.85V123H1228.68V19.8712H1291.85V39.9975H1253.8ZM1323.27 71.2887C1323.27 61.1031 1325.48 52.0438 1329.88 44.1109C1334.29 36.0799 1340.41 29.8609 1348.25 25.4536C1356.18 20.9485 1365.14 18.6959 1375.13 18.6959C1387.37 18.6959 1397.85 21.9279 1406.57 28.3918C1415.29 34.8557 1421.11 43.6701 1424.05 54.8351H1396.43C1394.38 50.5258 1391.44 47.2449 1387.62 44.9923C1383.9 42.7397 1379.64 41.6134 1374.84 41.6134C1367.1 41.6134 1360.83 44.3067 1356.03 49.6933C1351.23 55.0799 1348.83 62.2784 1348.83 71.2887C1348.83 80.299 1351.23 87.4974 1356.03 92.884C1360.83 98.2706 1367.1 100.964 1374.84 100.964C1379.64 100.964 1383.9 99.8376 1387.62 97.5851C1391.44 95.3325 1394.38 92.0516 1396.43 87.7423H1424.05C1421.11 98.9072 1415.29 107.722 1406.57 114.186C1397.85 120.552 1387.37 123.735 1375.13 123.735C1365.14 123.735 1356.18 121.531 1348.25 117.124C1340.41 112.619 1334.29 106.399 1329.88 98.4665C1325.48 90.5335 1323.27 81.4742 1323.27 71.2887ZM1522.88 19.8712V123H1497.76V80.5438H1458.68V123H1433.56V19.8712H1458.68V60.2706H1497.76V19.8712H1522.88ZM1599.34 104.784H1560.85L1554.68 123H1528.38L1565.69 19.8712H1594.78L1632.1 123H1605.51L1599.34 104.784ZM1592.87 85.3918L1580.09 47.6366L1567.46 85.3918H1592.87ZM1754.37 19.8712V123H1729.25V61.1521L1706.18 123H1685.91L1662.7 61.0052V123H1637.58V19.8712H1667.25L1696.19 91.2681L1724.84 19.8712H1754.37ZM1830.75 104.784H1792.26L1786.09 123H1759.8L1797.11 19.8712H1826.2L1863.51 123H1836.92L1830.75 104.784ZM1824.29 85.3918L1811.51 47.6366L1798.88 85.3918H1824.29ZM1932.89 19.8712C1943.76 19.8712 1953.26 22.0258 1961.39 26.3351C1969.52 30.6444 1975.78 36.7165 1980.19 44.5516C1984.7 52.2887 1986.95 61.25 1986.95 71.4356C1986.95 81.5232 1984.7 90.4845 1980.19 98.3196C1975.78 106.155 1969.47 112.227 1961.24 116.536C1953.11 120.845 1943.66 123 1932.89 123H1894.25V19.8712H1932.89ZM1931.27 101.258C1940.77 101.258 1948.17 98.6624 1953.45 93.4717C1958.74 88.2809 1961.39 80.9356 1961.39 71.4356C1961.39 61.9356 1958.74 54.5413 1953.45 49.2526C1948.17 43.9639 1940.77 41.3196 1931.27 41.3196H1919.37V101.258H1931.27ZM2059.31 104.784H2020.82L2014.65 123H1988.35L2025.67 19.8712H2054.76L2092.07 123H2065.48L2059.31 104.784ZM2052.85 85.3918L2040.07 47.6366L2027.43 85.3918H2052.85ZM2146.32 124.028C2136.63 124.028 2127.72 121.776 2119.59 117.271C2111.56 112.765 2105.14 106.497 2100.34 98.4665C2095.64 90.3376 2093.29 81.2294 2093.29 71.1418C2093.29 61.0541 2095.64 51.9949 2100.34 43.9639C2105.14 35.933 2111.56 29.665 2119.59 25.1598C2127.72 20.6547 2136.63 18.4021 2146.32 18.4021C2156.02 18.4021 2164.88 20.6547 2172.91 25.1598C2181.04 29.665 2187.41 35.933 2192.01 43.9639C2196.71 51.9949 2199.06 61.0541 2199.06 71.1418C2199.06 81.2294 2196.71 90.3376 2192.01 98.4665C2187.31 106.497 2180.94 112.765 2172.91 117.271C2164.88 121.776 2156.02 124.028 2146.32 124.028ZM2146.32 101.111C2154.55 101.111 2161.11 98.3686 2166.01 92.884C2171 87.3995 2173.5 80.1521 2173.5 71.1418C2173.5 62.0335 2171 54.7861 2166.01 49.3995C2161.11 43.915 2154.55 41.1727 2146.32 41.1727C2138 41.1727 2131.34 43.866 2126.34 49.2526C2121.45 54.6392 2119 61.9356 2119 71.1418C2119 80.25 2121.45 87.5464 2126.34 93.0309C2131.34 98.4175 2138 101.111 2146.32 101.111Z" fill="#0E0E0E" style="fill:#0E0E0E;fill:color(display-p3 0.0560 0.0560 0.0560);fill-opacity:1;"/>
</g>
</svg>
