<svg width="289" height="54" viewBox="0 0 289 54" fill="none" xmlns="http://www.w3.org/2000/svg">
<path fill-rule="evenodd" clip-rule="evenodd" d="M46.1773 39.612H51.3524L51.3524 15.3615L46.1773 15.3615L46.1773 39.612ZM52.5876 39.616H52.5883C59.1805 39.616 64.5245 34.1873 64.5245 27.4907C64.5245 20.7941 59.1805 15.3654 52.5883 15.3654H52.5876V19.8859H52.5883C56.6172 19.8859 60.004 23.2235 60.004 27.4907C60.004 31.7579 56.6172 35.0955 52.5883 35.0955H52.5876V39.616ZM44.937 39.6161H44.9362C38.344 39.6161 33 34.1875 33 27.4909C33 20.7943 38.344 15.3656 44.9362 15.3656H44.937V19.8861H44.9362C40.9073 19.8861 37.5205 23.2237 37.5205 27.4909C37.5205 31.7581 40.9073 35.0956 44.9362 35.0956H44.937V39.6161Z" fill="url(#paint0_linear_180_345)" style=""/>
<path d="M123.821 36.2855C122.124 36.2855 120.586 35.9207 119.206 35.1911C117.842 34.4457 116.764 33.4227 115.971 32.1221C115.193 30.8057 114.805 29.3228 114.805 27.6733C114.805 26.0238 115.193 24.5488 115.971 23.2483C116.764 21.9319 117.842 20.9089 119.206 20.1793C120.586 19.4339 122.132 19.0611 123.845 19.0611C125.288 19.0611 126.589 19.3149 127.747 19.8224C128.92 20.33 129.904 21.0596 130.697 22.0112L128.223 24.2951C127.097 22.9945 125.701 22.3442 124.036 22.3442C123.005 22.3442 122.085 22.5742 121.276 23.0342C120.467 23.4783 119.833 24.1047 119.373 24.9136C118.928 25.7225 118.706 26.6424 118.706 27.6733C118.706 28.7042 118.928 29.6241 119.373 30.433C119.833 31.2419 120.467 31.8763 121.276 32.3363C122.085 32.7803 123.005 33.0024 124.036 33.0024C125.701 33.0024 127.097 32.3442 128.223 31.0278L130.697 33.3117C129.904 34.2792 128.92 35.0167 127.747 35.5242C126.573 36.0317 125.265 36.2855 123.821 36.2855ZM139.152 23.0104C140.738 23.0104 142.015 23.4862 142.982 24.4378C143.966 25.3894 144.457 26.801 144.457 28.6725V36H140.746V29.2435C140.746 28.2284 140.524 27.4751 140.08 26.9834C139.636 26.4759 138.993 26.2221 138.153 26.2221C137.217 26.2221 136.472 26.5155 135.916 27.1023C135.361 27.6733 135.084 28.5298 135.084 29.6717V36H131.372V18.3474H135.084V24.533C135.575 24.0413 136.17 23.6686 136.868 23.4148C137.566 23.1452 138.327 23.0104 139.152 23.0104ZM159.285 23.2007V36H155.74V34.525C154.82 35.6352 153.488 36.1903 151.743 36.1903C150.538 36.1903 149.444 35.9207 148.46 35.3814C147.493 34.8422 146.732 34.073 146.176 33.0738C145.621 32.0746 145.344 30.9168 145.344 29.6003C145.344 28.2839 145.621 27.1261 146.176 26.1269C146.732 25.1277 147.493 24.3585 148.46 23.8193C149.444 23.28 150.538 23.0104 151.743 23.0104C153.377 23.0104 154.654 23.5258 155.574 24.5568V23.2007H159.285ZM152.386 33.1451C153.322 33.1451 154.099 32.8279 154.717 32.1935C155.336 31.5432 155.645 30.6789 155.645 29.6003C155.645 28.5218 155.336 27.6654 154.717 27.031C154.099 26.3807 153.322 26.0556 152.386 26.0556C151.434 26.0556 150.649 26.3807 150.031 27.031C149.412 27.6654 149.103 28.5218 149.103 29.6003C149.103 30.6789 149.412 31.5432 150.031 32.1935C150.649 32.8279 151.434 33.1451 152.386 33.1451ZM177.447 23.0104C179.049 23.0104 180.318 23.4862 181.254 24.4378C182.206 25.3736 182.681 26.7851 182.681 28.6725V36H178.97V29.2435C178.97 28.2284 178.756 27.4751 178.328 26.9834C177.915 26.4759 177.321 26.2221 176.543 26.2221C175.671 26.2221 174.981 26.5076 174.474 27.0786C173.966 27.6337 173.712 28.4663 173.712 29.5766V36H170.001V29.2435C170.001 27.2292 169.192 26.2221 167.574 26.2221C166.718 26.2221 166.036 26.5076 165.528 27.0786C165.021 27.6337 164.767 28.4663 164.767 29.5766V36H161.056V23.2007H164.601V24.6757C165.076 24.1365 165.655 23.7241 166.337 23.4386C167.035 23.1531 167.796 23.0104 168.621 23.0104C169.525 23.0104 170.342 23.1928 171.072 23.5576C171.801 23.9065 172.388 24.4219 172.832 25.1039C173.355 24.4378 174.014 23.9223 174.807 23.5576C175.616 23.1928 176.496 23.0104 177.447 23.0104ZM197.472 23.2007V36H193.927V34.525C193.007 35.6352 191.675 36.1903 189.93 36.1903C188.725 36.1903 187.63 35.9207 186.647 35.3814C185.679 34.8422 184.918 34.073 184.363 33.0738C183.808 32.0746 183.53 30.9168 183.53 29.6003C183.53 28.2839 183.808 27.1261 184.363 26.1269C184.918 25.1277 185.679 24.3585 186.647 23.8193C187.63 23.28 188.725 23.0104 189.93 23.0104C191.564 23.0104 192.84 23.5258 193.76 24.5568V23.2007H197.472ZM190.572 33.1451C191.508 33.1451 192.285 32.8279 192.904 32.1935C193.522 31.5432 193.832 30.6789 193.832 29.6003C193.832 28.5218 193.522 27.6654 192.904 27.031C192.285 26.3807 191.508 26.0556 190.572 26.0556C189.621 26.0556 188.836 26.3807 188.217 27.031C187.599 27.6654 187.289 28.5218 187.289 29.6003C187.289 30.6789 187.599 31.5432 188.217 32.1935C188.836 32.8279 189.621 33.1451 190.572 33.1451ZM199.504 19.3466H207.069C208.878 19.3466 210.471 19.6956 211.851 20.3934C213.247 21.0754 214.326 22.0429 215.087 23.2959C215.864 24.5488 216.253 26.008 216.253 27.6733C216.253 29.3387 215.864 30.7978 215.087 32.0508C214.326 33.3037 213.247 34.2792 211.851 34.977C210.471 35.659 208.878 36 207.069 36H199.504V19.3466ZM206.879 32.8359C208.544 32.8359 209.869 32.3759 210.852 31.456C211.851 30.5202 212.351 29.2594 212.351 27.6733C212.351 26.0873 211.851 24.8343 210.852 23.9144C209.869 22.9787 208.544 22.5108 206.879 22.5108H203.358V32.8359H206.879ZM224.988 19.0611C226.526 19.0611 227.866 19.3625 229.008 19.9652C230.15 20.5679 231.039 21.4561 231.673 22.6297C232.307 23.8034 232.625 25.2229 232.625 26.8882V36H228.77V32.0032H221.158V36H217.351V26.8882C217.351 25.2229 217.668 23.8034 218.303 22.6297C218.937 21.4561 219.825 20.5679 220.967 19.9652C222.109 19.3625 223.449 19.0611 224.988 19.0611ZM228.77 28.9104V26.5314C228.77 25.1515 228.429 24.1127 227.747 23.4148C227.065 22.7011 226.138 22.3442 224.964 22.3442C223.774 22.3442 222.839 22.7011 222.157 23.4148C221.491 24.1127 221.158 25.1515 221.158 26.5314V28.9104H228.77ZM242.828 36.2855C241.099 36.2855 239.537 35.9128 238.142 35.1673C236.762 34.4219 235.675 33.3989 234.882 32.0984C234.105 30.7819 233.717 29.3069 233.717 27.6733C233.717 26.0397 234.105 24.5726 234.882 23.2721C235.675 21.9557 236.762 20.9247 238.142 20.1793C239.537 19.4339 241.099 19.0611 242.828 19.0611C244.557 19.0611 246.111 19.4339 247.491 20.1793C248.871 20.9247 249.958 21.9557 250.751 23.2721C251.544 24.5726 251.94 26.0397 251.94 27.6733C251.94 29.3069 251.544 30.7819 250.751 32.0984C249.958 33.3989 248.871 34.4219 247.491 35.1673C246.111 35.9128 244.557 36.2855 242.828 36.2855ZM242.828 33.0024C243.812 33.0024 244.7 32.7803 245.493 32.3363C246.286 31.8763 246.904 31.2419 247.348 30.433C247.808 29.6241 248.038 28.7042 248.038 27.6733C248.038 26.6424 247.808 25.7225 247.348 24.9136C246.904 24.1047 246.286 23.4783 245.493 23.0342C244.7 22.5742 243.812 22.3442 242.828 22.3442C241.845 22.3442 240.957 22.5742 240.164 23.0342C239.371 23.4783 238.744 24.1047 238.284 24.9136C237.84 25.7225 237.618 26.6424 237.618 27.6733C237.618 28.7042 237.84 29.6241 238.284 30.433C238.744 31.2419 239.371 31.8763 240.164 32.3363C240.957 32.7803 241.845 33.0024 242.828 33.0024Z" fill="#0E0E0E" style="fill:#0E0E0E;fill:color(display-p3 0.0560 0.0560 0.0560);fill-opacity:1;"/>
<path d="M84.5462 24.0096C83.1188 23.1849 81.5883 22.6535 79.9547 22.4156V36H76.1006V22.4156C74.467 22.6535 72.9285 23.1849 71.4853 24.0096L70.1768 21.1309C71.3187 20.4489 72.5558 19.9335 73.8881 19.5846C75.2204 19.2356 76.5923 19.0612 78.0039 19.0612C79.4313 19.0612 80.8111 19.2356 82.1434 19.5846C83.4915 19.9335 84.7286 20.4489 85.8547 21.1309L84.5462 24.0096ZM93.4366 23.0104C95.0227 23.0104 96.2994 23.4862 97.2669 24.4378C98.2502 25.3894 98.7419 26.801 98.7419 28.6725V36H95.0306V29.2435C95.0306 28.2284 94.8086 27.4751 94.3645 26.9834C93.9204 26.4759 93.278 26.2221 92.4374 26.2221C91.5017 26.2221 90.7562 26.5155 90.2011 27.1024C89.646 27.6733 89.3685 28.5298 89.3685 29.6717V36H85.6571V18.3475H89.3685V24.533C89.8601 24.0413 90.4549 23.6686 91.1528 23.4148C91.8506 23.1452 92.6119 23.0104 93.4366 23.0104ZM107.027 33.2165C107.693 33.2165 108.28 33.1213 108.788 32.931C109.311 32.7248 109.795 32.4076 110.239 31.9794L112.214 34.1206C111.008 35.5004 109.248 36.1903 106.932 36.1903C105.489 36.1903 104.212 35.9128 103.102 35.3577C101.992 34.7867 101.135 34.0016 100.533 33.0024C99.9298 32.0032 99.6285 30.8692 99.6285 29.6004C99.6285 28.3474 99.9219 27.2213 100.509 26.2221C101.111 25.207 101.928 24.422 102.959 23.8668C104.006 23.2959 105.18 23.0104 106.48 23.0104C107.701 23.0104 108.812 23.2721 109.811 23.7955C110.81 24.303 111.603 25.0484 112.19 26.0318C112.793 26.9993 113.094 28.1491 113.094 29.4814L103.625 31.3133C103.895 31.9477 104.315 32.4235 104.886 32.7407C105.473 33.0579 106.187 33.2165 107.027 33.2165ZM106.48 25.8177C105.544 25.8177 104.783 26.119 104.196 26.7217C103.609 27.3244 103.3 28.1571 103.268 29.2197L109.502 28.0064C109.327 27.3403 108.97 26.8089 108.431 26.4124C107.892 26.0159 107.241 25.8177 106.48 25.8177Z" fill="#0E0E0E" style="fill:#0E0E0E;fill:color(display-p3 0.0560 0.0560 0.0560);fill-opacity:1;"/>
<rect x="0.5" y="0.5" width="288" height="53" rx="17.5" stroke="#A3A1A1" style="stroke:#A3A1A1;stroke:color(display-p3 0.6376 0.6302 0.6302);stroke-opacity:1;"/>
<defs>
<linearGradient id="paint0_linear_180_345" x1="24.8161" y1="27.4887" x2="85.9287" y2="27.4887" gradientUnits="userSpaceOnUse">
<stop stop-color="#89D3DC" style="stop-color:#89D3DC;stop-color:color(display-p3 0.5373 0.8275 0.8627);stop-opacity:1;"/>
<stop offset="1" stop-color="#7FC786" style="stop-color:#7FC786;stop-color:color(display-p3 0.4980 0.7804 0.5255);stop-opacity:1;"/>
</linearGradient>
</defs>
</svg>
